PathFileType	4	(X/Y/Z)	C:/Users/beibeiliu/ov580/test_trc\sequence.24_training_dense_right.trc
DataRate	CameraRate	NumFrames	NumMarkers	Units	OrigDataRate	OrigDataStartFrame	OrigNumFrames
120	120	8	19	mm	120	27	80
Frame#	Time	ThumbCMC			ThumbMCP			ThumbIP			ThumbTip			IndexMCP			IndexPIP			IndexTip			MiddleMCP			MiddlePIP			MiddleTip			RingMCP			RingPIP			RingTip			PinkyMCP			PinkyPIP			PinkyTip			BackHand1			BackHand2			BackHand3	
		X0	Y0	Z0	X1	Y1	Z1	X2	Y2	Z2	X3	Y3	Z3	X4	Y4	Z4	X5	Y5	Z5	X6	Y6	Z6	X7	Y7	Z7	X8	Y8	Z8	X9	Y9	Z9	X10	Y10	Z10	X11	Y11	Z11	X12	Y12	Z12	X13	Y13	Z13	X14	Y14	Z14	X15	Y15	Z15	X16	Y16	Z16	X17	Y17	Z17	X18	Y18	Z18	
26	0.216667	99.801	33.2807	149.096	77.7906	17.988	137.112	58.4145	10.3929	119.943	50.0545	-2.77038	98.2372	108.035	28.0158	79.485	99.1559	11.774	56.6942	79.1653	-10.0361	46.9125	125.726	13.9118	73.4694	110.434	-9.03925	51.4926	90.0901	-33.2852	53.071	136.932	-0.611787	74.6008	120.462	-19.5795	57.2192	98.3129	-42.0592	60.2374	150.951	-17.6729	89.4696	133.82	-29.7071	71.6499	111.192	-45.984	69.5983	154.334	16.3532	124.483	162.28	21.2502	152.678	137.307	42.7731	138.838	
27	0.225	106.985	60.9099	155.542	77.7131	54.9117	144.631	56.096	49.6628	122.004	43.5386	40.5551	107.119	105.259	45.416	79.9762	86.789	37.4138	61.5667	60.3687	21.8195	54.4881	114.57	27.7695	74.2633	92.0465	12.4309	56.111	58.8687	-0.00123864	62.2779	124.063	8.14071	80.5707	98.5453	-0.837798	62.6069	69.4645	-15.3408	69.2574	129.412	-8.12188	91.8873	109.713	-20.685	76.0598	77.022	-20.4587	76.476	149.51	20.3159	121.92	161.605	27.908	152.831	141.656	51.3895	134.403	
28	0.233333	123.8	76.195	150.611	94.8027	83.9598	139.163	75.8604	86.5511	124.192	58.1153	82.0378	105.999	111.377	65.5747	76.5936	90.352	64.3282	61.6134	57.6242	58.7199	58.028	112.378	41.8188	72.4287	86.6213	39.7948	58.144	51.096	37.603	64.0382	111.634	21.0502	77.4716	85.8201	17.7314	64.2015	56.2718	21.1049	70.9237	111.518	3.26043	92.3468	87.288	1.29843	78.4283	59.4088	5.01415	79.6428	146.751	23.8645	121.873	159.715	22.6859	150.266	150.513	56.4941	131.103	
29	0.241667	146.278	72.3628	146.047	122.455	90.1177	133.854	104.118	101.805	112.464	87.2868	95.7854	93.0055	128.053	58.7605	70.8435	109.711	65.1471	55.7007	81.2916	70.3364	51.4191	121.266	38.3757	67.7785	94.3516	45.2668	54.5064	63.7277	61.0534	58.5717	113.983	20.192	77.9192	87.4116	28.9517	62.0038	61.3359	44.7645	66.8008	107.192	5.94275	93.0676	81.3169	11.482	78.4777	57.7914	24.3651	78.1147	146.407	13.6717	119.513	158.5	9.84826	149.246	163.816	44.7666	131.759	
30	0.25	165.082	61.3774	138.569	148.353	81.4318	121.925	136.138	91.8287	102.042	121.371	90.2398	82.7397	153.549	43.9371	68.1882	132.004	48.9081	48.7534	108.895	60.3571	41.2109	137.105	23.8417	66.5634	113.505	35.4836	47.9977	87.1352	55.0748	49.3994	123.386	9.22413	74.2799	102.873	22.9302	57.6907	76.9901	44.8954	61.4773	112.723	0.86434	90.9703	92.8616	12.1946	75.3812	73.6533	30.273	71.7095	150.255	-0.337974	122.934	158.735	0.0515623	150.287	175.105	25.2985	131.852	
31	0.258333	179.177	44.5806	139.267	166.746	63.4326	113.804	160.086	71.4096	92.0702	146.616	69.1469	68.5737	173.125	15.2192	72.2652	158.003	23.764	45.1793	133.321	36.1439	34.9572	155.948	-0.726643	66.9411	136.175	9.74584	46.2123	112.946	36.7998	39.8648	140.14	-9.23832	74.7262	120.259	2.76844	56.0311	105.157	26.9497	52.4317	123.945	-16.719	92.7798	109.064	-4.32443	74.26	95.4976	20.0455	65.4692	160.545	-14.6645	127.085	167.843	-12.3414	158.207	183.386	5.63429	136.84	
32	0.266667	194.614	34.7109	144.231	186.882	48.3857	111.984	184.66	52.6408	85.4663	172.963	43.9123	63.6125	198.213	-6.12426	80.2488	188.517	0.239119	47.7055	168.571	10.6733	34.6028	181.876	-20.9653	77.1733	168.235	-12.1377	47.1784	142.867	8.78563	36.8521	163.425	-29.9223	81.8171	149.584	-20.2833	56.5683	130.068	5.85235	49.0083	145.884	-33.4045	96.3962	128.999	-25.1623	73.5925	121.232	3.66241	61.5787	172.996	-30.3421	137.006	171.355	-23.3056	164.393	196.212	-7.74425	142.683	
33	0.275	206.975	29.7903	147.89	205.175	43.4711	119.363	206.628	44.1927	91.2252	203.308	32.1855	64.7008	229.259	-13.194	87.0263	223.111	-13.9475	59.774	202.206	-6.50615	39.7334	210.427	-31.8	87.4146	204.73	-26.9395	54.7061	184.663	-7.84186	37.0297	193.7	-41.9087	85.7337	183.67	-35.4982	59.8967	165.899	-14.2641	47.8278	174.668	-45.4477	97.3904	163.924	-39.4292	72.7972	152.14	-13.2308	55.4488	195.064	-35.3765	144.618	188.823	-25.3206	168.755	214.4	-5.66311	154.964	
